<mxfile host="app.diagrams.net" modified="2023-05-23T08:55:46.526Z" agent="Mozilla/5.0 (Windows NT 10.0; Win64; x64) AppleWebKit/537.36 (KHTML, like Gecko) Chrome/110.0.0.0 YaBrowser/23.3.4.603 Yowser/2.5 Safari/537.36" etag="IKCZUaBr7_G5yE5ty6jn" version="21.3.2" type="github">
  <diagram id="6a731a19-8d31-9384-78a2-239565b7b9f0" name="Page-1">
    <mxGraphModel dx="1386" dy="767" grid="1" gridSize="10" guides="1" tooltips="1" connect="1" arrows="1" fold="1" page="1" pageScale="1" pageWidth="1169" pageHeight="827" background="none" math="0" shadow="0">
      <root>
        <mxCell id="0" />
        <mxCell id="1" parent="0" />
        <mxCell id="2" value="Начало" style="shape=mxgraph.flowchart.terminator;strokeWidth=2;gradientColor=none;gradientDirection=north;fontStyle=0;html=1;" parent="1" vertex="1">
          <mxGeometry x="260" y="60" width="120" height="30" as="geometry" />
        </mxCell>
        <mxCell id="3" value="Ввод исходного массива&lt;br&gt;str[]" style="shape=mxgraph.flowchart.data;strokeWidth=2;gradientColor=none;gradientDirection=north;fontStyle=0;html=1;" parent="1" vertex="1">
          <mxGeometry x="220.25" y="130" width="199.5" height="80" as="geometry" />
        </mxCell>
        <mxCell id="7" style="fontStyle=1;strokeColor=#003366;strokeWidth=1;html=1;" parent="1" source="2" target="3" edge="1">
          <mxGeometry relative="1" as="geometry" />
        </mxCell>
        <mxCell id="8" style="fontStyle=1;strokeColor=#003366;strokeWidth=1;html=1;" parent="1" source="3" edge="1">
          <mxGeometry relative="1" as="geometry">
            <mxPoint x="320" y="250" as="targetPoint" />
          </mxGeometry>
        </mxCell>
        <mxCell id="40" value="end" style="shape=mxgraph.flowchart.terminator;strokeWidth=2;gradientColor=none;gradientDirection=north;fontStyle=0;html=1;" parent="1" vertex="1">
          <mxGeometry x="260" y="600" width="120" height="30" as="geometry" />
        </mxCell>
        <mxCell id="meR5-qeEInBrMpZkDNT1-55" value="Начало&lt;br&gt;CountStr3(string[] arr)" style="shape=mxgraph.flowchart.terminator;strokeWidth=2;gradientColor=none;gradientDirection=north;fontStyle=0;html=1;" vertex="1" parent="1">
          <mxGeometry x="835" y="60" width="150" height="40" as="geometry" />
        </mxCell>
        <mxCell id="meR5-qeEInBrMpZkDNT1-56" value="count = 0&lt;br&gt;i = 0" style="shape=mxgraph.flowchart.data;strokeWidth=2;gradientColor=none;gradientDirection=north;fontStyle=0;html=1;" vertex="1" parent="1">
          <mxGeometry x="810.25" y="150" width="199.5" height="80" as="geometry" />
        </mxCell>
        <mxCell id="meR5-qeEInBrMpZkDNT1-71" style="edgeStyle=orthogonalEdgeStyle;rounded=0;orthogonalLoop=1;jettySize=auto;html=1;exitX=1;exitY=0.5;exitDx=0;exitDy=0;exitPerimeter=0;entryX=0.5;entryY=0;entryDx=0;entryDy=0;entryPerimeter=0;" edge="1" parent="1" source="meR5-qeEInBrMpZkDNT1-57" target="meR5-qeEInBrMpZkDNT1-58">
          <mxGeometry relative="1" as="geometry">
            <Array as="points">
              <mxPoint x="1030" y="319" />
              <mxPoint x="1030" y="660" />
              <mxPoint x="910" y="660" />
            </Array>
          </mxGeometry>
        </mxCell>
        <mxCell id="meR5-qeEInBrMpZkDNT1-57" value="i &amp;lt; arr.Length?" style="shape=mxgraph.flowchart.decision;strokeWidth=2;gradientColor=none;gradientDirection=north;fontStyle=0;html=1;" vertex="1" parent="1">
          <mxGeometry x="850.5" y="290" width="119" height="57" as="geometry" />
        </mxCell>
        <mxCell id="meR5-qeEInBrMpZkDNT1-58" value="return count&lt;br&gt;Конец CountStr3" style="shape=mxgraph.flowchart.terminator;strokeWidth=2;gradientColor=none;gradientDirection=north;fontStyle=0;html=1;" vertex="1" parent="1">
          <mxGeometry x="835" y="720" width="150" height="40" as="geometry" />
        </mxCell>
        <mxCell id="meR5-qeEInBrMpZkDNT1-59" value="arr[i].Length &amp;lt;= 3?" style="shape=mxgraph.flowchart.decision;strokeWidth=2;gradientColor=none;gradientDirection=north;fontStyle=0;html=1;" vertex="1" parent="1">
          <mxGeometry x="850.5" y="400" width="119" height="80" as="geometry" />
        </mxCell>
        <mxCell id="meR5-qeEInBrMpZkDNT1-61" value="sizeNew = CountStr3(str)" style="shape=mxgraph.flowchart.predefined_process;strokeWidth=2;gradientColor=none;gradientDirection=north;fontStyle=0;html=1;" vertex="1" parent="1">
          <mxGeometry x="212.5" y="248" width="215" height="90" as="geometry" />
        </mxCell>
        <mxCell id="meR5-qeEInBrMpZkDNT1-62" value="count = count + 1" style="rounded=0;whiteSpace=wrap;html=1;strokeWidth=2;" vertex="1" parent="1">
          <mxGeometry x="850" y="530" width="120" height="60" as="geometry" />
        </mxCell>
        <mxCell id="meR5-qeEInBrMpZkDNT1-63" value="" style="edgeStyle=elbowEdgeStyle;elbow=horizontal;fontColor=#001933;fontStyle=1;strokeColor=#003366;strokeWidth=1;html=1;" edge="1" parent="1">
          <mxGeometry x="589.5" y="20" width="100" height="100" as="geometry">
            <mxPoint x="910" y="480" as="sourcePoint" />
            <mxPoint x="909.5" y="530" as="targetPoint" />
          </mxGeometry>
        </mxCell>
        <mxCell id="meR5-qeEInBrMpZkDNT1-64" value="да" style="text;fontStyle=0;html=1;strokeColor=none;gradientColor=none;fillColor=none;strokeWidth=2;" vertex="1" parent="1">
          <mxGeometry x="920" y="484" width="40" height="26" as="geometry" />
        </mxCell>
        <mxCell id="meR5-qeEInBrMpZkDNT1-65" value="i = i + 1" style="rounded=0;whiteSpace=wrap;html=1;strokeWidth=2;" vertex="1" parent="1">
          <mxGeometry x="680" y="347" width="120" height="60" as="geometry" />
        </mxCell>
        <mxCell id="meR5-qeEInBrMpZkDNT1-66" value="" style="edgeStyle=elbowEdgeStyle;elbow=horizontal;fontColor=#001933;fontStyle=1;strokeColor=#003366;strokeWidth=1;html=1;exitX=0;exitY=0.5;exitDx=0;exitDy=0;entryX=0.5;entryY=1;entryDx=0;entryDy=0;" edge="1" parent="1" source="meR5-qeEInBrMpZkDNT1-62" target="meR5-qeEInBrMpZkDNT1-65">
          <mxGeometry x="450" y="60" width="100" height="100" as="geometry">
            <mxPoint x="770.5" y="520" as="sourcePoint" />
            <mxPoint x="770" y="570" as="targetPoint" />
            <Array as="points">
              <mxPoint x="740" y="480" />
            </Array>
          </mxGeometry>
        </mxCell>
        <mxCell id="meR5-qeEInBrMpZkDNT1-67" value="" style="edgeStyle=elbowEdgeStyle;elbow=horizontal;fontColor=#001933;fontStyle=1;strokeColor=#003366;strokeWidth=1;html=1;exitX=0;exitY=0.5;exitDx=0;exitDy=0;exitPerimeter=0;" edge="1" parent="1" source="meR5-qeEInBrMpZkDNT1-59">
          <mxGeometry x="460" y="70" width="100" height="100" as="geometry">
            <mxPoint x="860" y="570" as="sourcePoint" />
            <mxPoint x="740" y="410" as="targetPoint" />
            <Array as="points">
              <mxPoint x="740" y="430" />
              <mxPoint x="750" y="490" />
            </Array>
          </mxGeometry>
        </mxCell>
        <mxCell id="meR5-qeEInBrMpZkDNT1-68" value="нет" style="text;fontStyle=0;html=1;strokeColor=none;gradientColor=none;fillColor=none;strokeWidth=2;" vertex="1" parent="1">
          <mxGeometry x="780" y="447" width="40" height="26" as="geometry" />
        </mxCell>
        <mxCell id="meR5-qeEInBrMpZkDNT1-69" value="" style="edgeStyle=elbowEdgeStyle;elbow=horizontal;fontColor=#001933;fontStyle=1;strokeColor=#003366;strokeWidth=1;html=1;exitX=0.5;exitY=0;exitDx=0;exitDy=0;entryX=0;entryY=0.5;entryDx=0;entryDy=0;entryPerimeter=0;" edge="1" parent="1" source="meR5-qeEInBrMpZkDNT1-65" target="meR5-qeEInBrMpZkDNT1-57">
          <mxGeometry x="429" y="-70" width="100" height="100" as="geometry">
            <mxPoint x="820" y="300" as="sourcePoint" />
            <mxPoint x="709" y="270" as="targetPoint" />
            <Array as="points">
              <mxPoint x="740" y="330" />
              <mxPoint x="719" y="350" />
            </Array>
          </mxGeometry>
        </mxCell>
        <mxCell id="meR5-qeEInBrMpZkDNT1-72" value="нет" style="text;fontStyle=0;html=1;strokeColor=none;gradientColor=none;fillColor=none;strokeWidth=2;" vertex="1" parent="1">
          <mxGeometry x="960" y="280" width="40" height="26" as="geometry" />
        </mxCell>
        <mxCell id="meR5-qeEInBrMpZkDNT1-73" value="" style="endArrow=classic;html=1;rounded=0;exitX=0.5;exitY=1;exitDx=0;exitDy=0;exitPerimeter=0;entryX=0.5;entryY=0;entryDx=0;entryDy=0;entryPerimeter=0;" edge="1" parent="1" source="meR5-qeEInBrMpZkDNT1-56" target="meR5-qeEInBrMpZkDNT1-57">
          <mxGeometry width="50" height="50" relative="1" as="geometry">
            <mxPoint x="740" y="290" as="sourcePoint" />
            <mxPoint x="790" y="240" as="targetPoint" />
          </mxGeometry>
        </mxCell>
        <mxCell id="meR5-qeEInBrMpZkDNT1-74" value="" style="endArrow=classic;html=1;rounded=0;exitX=0.5;exitY=1;exitDx=0;exitDy=0;exitPerimeter=0;entryX=0.5;entryY=0;entryDx=0;entryDy=0;entryPerimeter=0;" edge="1" parent="1" target="meR5-qeEInBrMpZkDNT1-56">
          <mxGeometry width="50" height="50" relative="1" as="geometry">
            <mxPoint x="909.5" y="100" as="sourcePoint" />
            <mxPoint x="909.5" y="160" as="targetPoint" />
          </mxGeometry>
        </mxCell>
        <mxCell id="meR5-qeEInBrMpZkDNT1-75" value="" style="edgeStyle=elbowEdgeStyle;elbow=horizontal;fontColor=#001933;fontStyle=1;strokeColor=#003366;strokeWidth=1;html=1;exitX=0.5;exitY=1;exitDx=0;exitDy=0;exitPerimeter=0;" edge="1" parent="1" source="meR5-qeEInBrMpZkDNT1-57">
          <mxGeometry x="589.5" y="-108" width="100" height="100" as="geometry">
            <mxPoint x="910" y="352" as="sourcePoint" />
            <mxPoint x="909.5" y="402" as="targetPoint" />
          </mxGeometry>
        </mxCell>
        <mxCell id="meR5-qeEInBrMpZkDNT1-76" value="да" style="text;fontStyle=0;html=1;strokeColor=none;gradientColor=none;fillColor=none;strokeWidth=2;" vertex="1" parent="1">
          <mxGeometry x="920" y="356" width="40" height="26" as="geometry" />
        </mxCell>
        <mxCell id="meR5-qeEInBrMpZkDNT1-77" value="Начало&lt;br&gt;CreateArrayOf3(string[] arr, int size)" style="shape=mxgraph.flowchart.terminator;strokeWidth=2;gradientColor=none;gradientDirection=north;fontStyle=0;html=1;" vertex="1" parent="1">
          <mxGeometry x="1250" y="50" width="225" height="50" as="geometry" />
        </mxCell>
        <mxCell id="meR5-qeEInBrMpZkDNT1-78" value="arrNew = new string[size]&lt;br&gt;indexNew = 0&lt;br&gt;i = 0" style="shape=mxgraph.flowchart.data;strokeWidth=2;gradientColor=none;gradientDirection=north;fontStyle=0;html=1;" vertex="1" parent="1">
          <mxGeometry x="1260.25" y="150" width="199.5" height="80" as="geometry" />
        </mxCell>
        <mxCell id="meR5-qeEInBrMpZkDNT1-79" style="edgeStyle=orthogonalEdgeStyle;rounded=0;orthogonalLoop=1;jettySize=auto;html=1;exitX=1;exitY=0.5;exitDx=0;exitDy=0;exitPerimeter=0;entryX=0.5;entryY=0;entryDx=0;entryDy=0;entryPerimeter=0;" edge="1" parent="1" source="meR5-qeEInBrMpZkDNT1-80" target="meR5-qeEInBrMpZkDNT1-81">
          <mxGeometry relative="1" as="geometry">
            <Array as="points">
              <mxPoint x="1480" y="319" />
              <mxPoint x="1480" y="660" />
              <mxPoint x="1360" y="660" />
            </Array>
          </mxGeometry>
        </mxCell>
        <mxCell id="meR5-qeEInBrMpZkDNT1-80" value="i &amp;lt; arr.Length?" style="shape=mxgraph.flowchart.decision;strokeWidth=2;gradientColor=none;gradientDirection=north;fontStyle=0;html=1;" vertex="1" parent="1">
          <mxGeometry x="1300.5" y="290" width="119" height="57" as="geometry" />
        </mxCell>
        <mxCell id="meR5-qeEInBrMpZkDNT1-81" value="return arrNew&lt;br&gt;Конец CreateArrayOf3" style="shape=mxgraph.flowchart.terminator;strokeWidth=2;gradientColor=none;gradientDirection=north;fontStyle=0;html=1;" vertex="1" parent="1">
          <mxGeometry x="1285" y="720" width="150" height="40" as="geometry" />
        </mxCell>
        <mxCell id="meR5-qeEInBrMpZkDNT1-82" value="arr[i].Length &amp;lt;= 3?" style="shape=mxgraph.flowchart.decision;strokeWidth=2;gradientColor=none;gradientDirection=north;fontStyle=0;html=1;" vertex="1" parent="1">
          <mxGeometry x="1300.5" y="400" width="119" height="80" as="geometry" />
        </mxCell>
        <mxCell id="meR5-qeEInBrMpZkDNT1-83" value="arrNew[indexNew] = arr[i]&lt;br&gt;indexNew = indexNew + 1" style="rounded=0;whiteSpace=wrap;html=1;strokeWidth=2;" vertex="1" parent="1">
          <mxGeometry x="1287.5" y="530" width="150" height="60" as="geometry" />
        </mxCell>
        <mxCell id="meR5-qeEInBrMpZkDNT1-84" value="" style="edgeStyle=elbowEdgeStyle;elbow=horizontal;fontColor=#001933;fontStyle=1;strokeColor=#003366;strokeWidth=1;html=1;" edge="1" parent="1">
          <mxGeometry x="1039.5" y="20" width="100" height="100" as="geometry">
            <mxPoint x="1360" y="480" as="sourcePoint" />
            <mxPoint x="1359.5" y="530" as="targetPoint" />
          </mxGeometry>
        </mxCell>
        <mxCell id="meR5-qeEInBrMpZkDNT1-85" value="да" style="text;fontStyle=0;html=1;strokeColor=none;gradientColor=none;fillColor=none;strokeWidth=2;" vertex="1" parent="1">
          <mxGeometry x="1370" y="484" width="40" height="26" as="geometry" />
        </mxCell>
        <mxCell id="meR5-qeEInBrMpZkDNT1-86" value="" style="edgeStyle=elbowEdgeStyle;elbow=horizontal;fontColor=#001933;fontStyle=1;strokeColor=#003366;strokeWidth=1;html=1;exitX=0;exitY=0.5;exitDx=0;exitDy=0;entryX=0.5;entryY=1;entryDx=0;entryDy=0;" edge="1" parent="1" source="meR5-qeEInBrMpZkDNT1-83">
          <mxGeometry x="900" y="60" width="100" height="100" as="geometry">
            <mxPoint x="1220.5" y="520" as="sourcePoint" />
            <mxPoint x="1190" y="407" as="targetPoint" />
            <Array as="points">
              <mxPoint x="1190" y="480" />
            </Array>
          </mxGeometry>
        </mxCell>
        <mxCell id="meR5-qeEInBrMpZkDNT1-87" value="" style="edgeStyle=elbowEdgeStyle;elbow=horizontal;fontColor=#001933;fontStyle=1;strokeColor=#003366;strokeWidth=1;html=1;exitX=0;exitY=0.5;exitDx=0;exitDy=0;exitPerimeter=0;" edge="1" parent="1" source="meR5-qeEInBrMpZkDNT1-82">
          <mxGeometry x="910" y="70" width="100" height="100" as="geometry">
            <mxPoint x="1310" y="570" as="sourcePoint" />
            <mxPoint x="1190" y="410" as="targetPoint" />
            <Array as="points">
              <mxPoint x="1190" y="430" />
              <mxPoint x="1200" y="490" />
            </Array>
          </mxGeometry>
        </mxCell>
        <mxCell id="meR5-qeEInBrMpZkDNT1-88" value="нет" style="text;fontStyle=0;html=1;strokeColor=none;gradientColor=none;fillColor=none;strokeWidth=2;" vertex="1" parent="1">
          <mxGeometry x="1230" y="447" width="40" height="26" as="geometry" />
        </mxCell>
        <mxCell id="meR5-qeEInBrMpZkDNT1-89" value="" style="edgeStyle=elbowEdgeStyle;elbow=horizontal;fontColor=#001933;fontStyle=1;strokeColor=#003366;strokeWidth=1;html=1;exitX=0.5;exitY=0;exitDx=0;exitDy=0;entryX=0;entryY=0.5;entryDx=0;entryDy=0;entryPerimeter=0;" edge="1" parent="1" target="meR5-qeEInBrMpZkDNT1-80">
          <mxGeometry x="879" y="-70" width="100" height="100" as="geometry">
            <mxPoint x="1190" y="347" as="sourcePoint" />
            <mxPoint x="1159" y="270" as="targetPoint" />
            <Array as="points">
              <mxPoint x="1190" y="330" />
              <mxPoint x="1169" y="350" />
            </Array>
          </mxGeometry>
        </mxCell>
        <mxCell id="meR5-qeEInBrMpZkDNT1-90" value="нет" style="text;fontStyle=0;html=1;strokeColor=none;gradientColor=none;fillColor=none;strokeWidth=2;" vertex="1" parent="1">
          <mxGeometry x="1410" y="280" width="40" height="26" as="geometry" />
        </mxCell>
        <mxCell id="meR5-qeEInBrMpZkDNT1-91" value="" style="endArrow=classic;html=1;rounded=0;exitX=0.5;exitY=1;exitDx=0;exitDy=0;exitPerimeter=0;entryX=0.5;entryY=0;entryDx=0;entryDy=0;entryPerimeter=0;" edge="1" parent="1" source="meR5-qeEInBrMpZkDNT1-78" target="meR5-qeEInBrMpZkDNT1-80">
          <mxGeometry width="50" height="50" relative="1" as="geometry">
            <mxPoint x="1190" y="290" as="sourcePoint" />
            <mxPoint x="1240" y="240" as="targetPoint" />
          </mxGeometry>
        </mxCell>
        <mxCell id="meR5-qeEInBrMpZkDNT1-92" value="" style="endArrow=classic;html=1;rounded=0;exitX=0.5;exitY=1;exitDx=0;exitDy=0;exitPerimeter=0;entryX=0.5;entryY=0;entryDx=0;entryDy=0;entryPerimeter=0;" edge="1" parent="1" target="meR5-qeEInBrMpZkDNT1-78">
          <mxGeometry width="50" height="50" relative="1" as="geometry">
            <mxPoint x="1359.5" y="100" as="sourcePoint" />
            <mxPoint x="1359.5" y="160" as="targetPoint" />
          </mxGeometry>
        </mxCell>
        <mxCell id="meR5-qeEInBrMpZkDNT1-93" value="" style="edgeStyle=elbowEdgeStyle;elbow=horizontal;fontColor=#001933;fontStyle=1;strokeColor=#003366;strokeWidth=1;html=1;exitX=0.5;exitY=1;exitDx=0;exitDy=0;exitPerimeter=0;" edge="1" parent="1" source="meR5-qeEInBrMpZkDNT1-80">
          <mxGeometry x="1039.5" y="-108" width="100" height="100" as="geometry">
            <mxPoint x="1360" y="352" as="sourcePoint" />
            <mxPoint x="1359.5" y="402" as="targetPoint" />
          </mxGeometry>
        </mxCell>
        <mxCell id="meR5-qeEInBrMpZkDNT1-94" value="да" style="text;fontStyle=0;html=1;strokeColor=none;gradientColor=none;fillColor=none;strokeWidth=2;" vertex="1" parent="1">
          <mxGeometry x="1370" y="356" width="40" height="26" as="geometry" />
        </mxCell>
        <mxCell id="meR5-qeEInBrMpZkDNT1-95" value="i = i + 1" style="rounded=0;whiteSpace=wrap;html=1;strokeWidth=2;" vertex="1" parent="1">
          <mxGeometry x="1130" y="347" width="120" height="60" as="geometry" />
        </mxCell>
        <mxCell id="meR5-qeEInBrMpZkDNT1-96" value="strNew = CreateArrayOf3(str, sizeNew)" style="shape=mxgraph.flowchart.predefined_process;strokeWidth=2;gradientColor=none;gradientDirection=north;fontStyle=0;html=1;" vertex="1" parent="1">
          <mxGeometry x="166.25" y="368.5" width="307.5" height="90" as="geometry" />
        </mxCell>
        <mxCell id="meR5-qeEInBrMpZkDNT1-97" value="Вывод исходного массива&lt;br&gt;str[]&lt;br&gt;Вывод искомого массива&lt;br style=&quot;border-color: var(--border-color);&quot;&gt;strNew[]" style="shape=mxgraph.flowchart.data;strokeWidth=2;gradientColor=none;gradientDirection=north;fontStyle=0;html=1;" vertex="1" parent="1">
          <mxGeometry x="205.13" y="490" width="229.75" height="80" as="geometry" />
        </mxCell>
        <mxCell id="meR5-qeEInBrMpZkDNT1-98" style="fontStyle=1;strokeColor=#003366;strokeWidth=1;html=1;exitX=0.5;exitY=1;exitDx=0;exitDy=0;exitPerimeter=0;" edge="1" parent="1" source="meR5-qeEInBrMpZkDNT1-61">
          <mxGeometry relative="1" as="geometry">
            <mxPoint x="440" y="350" as="sourcePoint" />
            <mxPoint x="319.5" y="369" as="targetPoint" />
          </mxGeometry>
        </mxCell>
        <mxCell id="meR5-qeEInBrMpZkDNT1-99" style="fontStyle=1;strokeColor=#003366;strokeWidth=1;html=1;exitX=0.5;exitY=1;exitDx=0;exitDy=0;exitPerimeter=0;entryX=0.5;entryY=0;entryDx=0;entryDy=0;entryPerimeter=0;" edge="1" parent="1" source="meR5-qeEInBrMpZkDNT1-96" target="meR5-qeEInBrMpZkDNT1-97">
          <mxGeometry relative="1" as="geometry">
            <mxPoint x="330" y="348" as="sourcePoint" />
            <mxPoint x="329.5" y="379" as="targetPoint" />
          </mxGeometry>
        </mxCell>
        <mxCell id="meR5-qeEInBrMpZkDNT1-100" style="fontStyle=1;strokeColor=#003366;strokeWidth=1;html=1;exitX=0.5;exitY=1;exitDx=0;exitDy=0;exitPerimeter=0;entryX=0.5;entryY=0;entryDx=0;entryDy=0;entryPerimeter=0;" edge="1" parent="1" source="meR5-qeEInBrMpZkDNT1-97" target="40">
          <mxGeometry relative="1" as="geometry">
            <mxPoint x="330" y="469" as="sourcePoint" />
            <mxPoint x="330" y="500" as="targetPoint" />
          </mxGeometry>
        </mxCell>
      </root>
    </mxGraphModel>
  </diagram>
</mxfile>
